<svg width="27" height="37" viewBox="0 0 27 37" fill="none" xmlns="http://www.w3.org/2000/svg">
<g clip-path="url(#clip0_2_438)">
<path d="M20.2107 0.539265C16.792 -0.36839 13.166 -0.132214 9.89689 1.21105C6.62776 2.55432 3.89874 4.92938 2.13432 7.96677C0.369902 11.0042 -0.330995 14.5336 0.140656 18.0061C0.612306 21.4786 2.23006 24.6995 4.74228 27.1677L22.6286 9.46554C23.2974 8.80308 23.7783 7.97806 24.0229 7.07337C24.2676 6.16868 24.2674 5.21619 24.0223 4.31161C23.7773 3.40702 23.2961 2.5822 22.627 1.92003C21.9579 1.25785 21.1246 0.78165 20.2107 0.539265Z" fill="url(#paint0_linear_2_438)"/>
<path d="M6.78875 36.46C10.2096 37.3705 13.8386 37.1358 17.1107 35.7924C20.3827 34.4489 23.1142 32.0721 24.8796 29.0321C26.6451 25.9922 27.3455 22.4596 26.8717 18.9846C26.398 15.5096 24.7767 12.2872 22.2603 9.81921L4.37394 27.5337C3.70514 28.1959 3.22416 29.0207 2.97933 29.9252C2.7345 30.8297 2.73443 31.7821 2.97913 32.6866C3.22383 33.5911 3.70469 34.416 4.3734 35.0784C5.0421 35.7407 5.87512 36.2172 6.78875 36.46Z" fill="url(#paint1_linear_2_438)"/>
<path style="mix-blend-mode:multiply" d="M22.2603 9.81921L4.37394 27.5337C3.70514 28.1959 3.22416 29.0207 2.97933 29.9252C2.7345 30.8297 2.73443 31.7821 2.97913 32.6866C3.22383 33.5911 3.70469 34.416 4.3734 35.0783C5.0421 35.7407 5.87512 36.2172 6.78875 36.4599C8.70142 36.9649 10.6917 37.1167 12.6599 36.9079C4.81723 29.4392 22.2603 9.81921 22.2603 9.81921Z" fill="url(#paint2_linear_2_438)"/>
<g style="mix-blend-mode:multiply">
<path style="mix-blend-mode:multiply" d="M6.46023 36.3618C3.92142 28.58 19.1698 12.9092 21.8605 10.2273L4.37401 27.5337C3.72569 28.1755 3.2535 28.9705 3.00208 29.8434C2.75066 30.7162 2.72832 31.6382 2.93717 32.522C3.14603 33.4058 3.57918 34.2222 4.19565 34.8941C4.81213 35.566 5.59156 36.0712 6.46023 36.3618Z" fill="url(#paint3_linear_2_438)"/>
<path style="mix-blend-mode:multiply" d="M22.2014 9.88978C22.22 9.86935 22.2397 9.84989 22.2603 9.83148L22.2014 9.88978Z" fill="url(#paint4_linear_2_438)"/>
</g>
<path style="mix-blend-mode:screen" d="M23.9405 7.36441L4.72116 27.1562L22.6292 9.46633C23.2274 8.87766 23.6767 8.15747 23.9405 7.36441Z" fill="url(#paint5_radial_2_438)"/>
</g>
<defs>
<linearGradient id="paint0_linear_2_438" x1="16.4102" y1="-16.6934" x2="10.5877" y2="20.6654" gradientUnits="userSpaceOnUse">
<stop stop-color="#0096D9"/>
<stop offset="1" stop-color="#00C198"/>
</linearGradient>
<linearGradient id="paint1_linear_2_438" x1="9.13537" y1="13.618" x2="18.5045" y2="32.4247" gradientUnits="userSpaceOnUse">
<stop stop-color="#002DD9"/>
<stop offset="1" stop-color="#00B2AB"/>
</linearGradient>
<linearGradient id="paint2_linear_2_438" x1="23.8071" y1="-3.42444" x2="6.08252" y2="38.1712" gradientUnits="userSpaceOnUse">
<stop stop-color="#3482C0"/>
<stop offset="0.45" stop-color="#96BEDE"/>
<stop offset="0.83" stop-color="#E1EDF6"/>
<stop offset="1" stop-color="white"/>
</linearGradient>
<linearGradient id="paint3_linear_2_438" x1="1361.37" y1="132.275" x2="-132.261" y2="2238.51" gradientUnits="userSpaceOnUse">
<stop stop-color="#3482C0"/>
<stop offset="0.45" stop-color="#96BEDE"/>
<stop offset="0.83" stop-color="#E1EDF6"/>
<stop offset="1" stop-color="white"/>
</linearGradient>
<linearGradient id="paint4_linear_2_438" x1="25.6732" y1="3.26802" x2="10.5952" y2="32.7125" gradientUnits="userSpaceOnUse">
<stop stop-color="#569FA1"/>
<stop offset="0.36" stop-color="#97C4C5"/>
<stop offset="0.8" stop-color="#E2EEEF"/>
<stop offset="1" stop-color="white"/>
</linearGradient>
<radialGradient id="paint5_radial_2_438" cx="0" cy="0" r="1" gradientUnits="userSpaceOnUse" gradientTransform="translate(21.5938 32.3819) scale(27.8184 27.5367)">
<stop stop-color="#FFFF00"/>
<stop offset="1"/>
</radialGradient>
<clipPath id="clip0_2_438">
<rect width="27" height="37" fill="white"/>
</clipPath>
</defs>
</svg>
